<?xml version="1.0" standalone="no"?>
<!DOCTYPE svg PUBLIC "-//W3C//DTD SVG 20010904//EN"
 "http://www.w3.org/TR/2001/REC-SVG-20010904/DTD/svg10.dtd">
<svg version="1.0" xmlns="http://www.w3.org/2000/svg"
 width="64.000000pt" height="64.000000pt" viewBox="0 0 64.000000 64.000000"
 preserveAspectRatio="xMidYMid meet">

<g transform="translate(0.000000,64.000000) scale(0.100000,-0.100000)"
fill="#b31515" stroke="none">
<path d="M230 627 c-19 -8 -47 -19 -63 -25 -41 -17 -112 -93 -138 -148 -33
-70 -33 -198 0 -268 29 -62 95 -128 157 -157 70 -33 198 -33 268 0 62 29 128
95 157 157 33 70 33 198 0 268 -30 63 -95 128 -157 156 -61 28 -174 36 -224
17z m190 -263 c0 -178 -9 -212 -65 -238 -41 -20 -68 -20 -105 -1 -36 19 -60
62 -60 110 0 35 1 36 33 33 29 -3 32 -7 37 -42 6 -46 35 -63 69 -40 20 14 21
24 21 144 l0 129 -32 3 c-33 3 -33 3 22 30 30 15 61 27 68 27 9 1 12 -37 12
-155z m-165 -34 c0 -21 -5 -26 -32 -28 -31 -3 -33 -1 -33 28 0 29 2 31 33 28
27 -2 32 -7 32 -28z"/>
</g>
</svg>
