<?xml version="1.0" standalone="no"?>
<!DOCTYPE svg PUBLIC "-//W3C//DTD SVG 20010904//EN"
 "http://www.w3.org/TR/2001/REC-SVG-20010904/DTD/svg10.dtd">
<svg version="1.0" xmlns="http://www.w3.org/2000/svg"
 width="800.000000pt" height="800.000000pt" viewBox="0 0 800.000000 800.000000"
 preserveAspectRatio="xMidYMid meet">

<g transform="translate(0.000000,800.000000) scale(0.100000,-0.100000)"
fill="#000000" stroke="none">
<path d="M0 4000 l0 -4000 4000 0 4000 0 0 4000 0 4000 -4000 0 -4000 0 0
-4000z m5365 2915 c233 -50 413 -146 584 -310 215 -207 332 -449 360 -743 33
-348 -112 -722 -370 -956 l-60 -54 45 -59 c123 -162 260 -430 329 -642 24 -75
47 -148 51 -163 l6 -28 -620 0 c-378 0 -620 4 -620 9 0 5 -27 50 -61 100 -174
261 -457 446 -771 506 -108 20 -318 20 -425 0 -241 -46 -462 -163 -632 -334
-459 -464 -457 -1214 5 -1675 464 -465 1215 -464 1680 1 69 68 192 232 205
272 3 8 171 10 621 9 l616 -3 -34 -112 c-117 -388 -318 -718 -611 -1004 -361
-353 -789 -566 -1293 -646 -161 -25 -529 -25 -689 0 -520 82 -970 312 -1334
681 -468 474 -711 1131 -667 1797 40 594 280 1114 706 1531 188 185 364 308
609 428 285 140 551 211 872 236 l92 7 5 41 c32 285 76 419 201 606 227 342
610 540 1010 525 66 -3 152 -12 190 -20z"/>
</g>
</svg>
